#N canvas 137 70 802 579 10;
#X obj 39 479 *~;
#X obj 657 447 / 127;
#X obj 713 512 line~;
#X obj 657 469 pack 0 50;
#X floatatom 42 241 10 0 0 0 MIDI - -, f 10;
#X obj 42 262 mtof;
#X floatatom 42 284 15 0 0 0 - - -, f 15;
#X floatatom 291 288 10 0 0 0 Span_Factor - -, f 10;
#X obj 476 248 bng 15 250 50 0 empty empty empty 17 7 0 10 -262144
-1 -1;
#X obj 476 226 loadbang;
#X obj 260 446 mtof;
#X floatatom 260 469 10 0 0 0 - - -, f 10;
#X floatatom 454 515 10 0 0 0 - - -, f 10;
#X obj 260 490 pack 0 50;
#X obj 260 512 line~;
#X obj 40 447 vcf~ 1;
#X floatatom 221 444 5 0 0 0 - - -, f 5;
#X obj 40 388 *~ 0.125;
#X obj 40 519 dac~;
#X obj 45 95 hsl 128 15 0 1 0 0 empty empty empty -2 -8 0 10 -262144
-1 -1 8400 1;
#X obj 82 129 hsl 128 15 0 1 0 0 empty empty empty -2 -8 0 10 -262144
-1 -1 0 1;
#X obj 294 102 hsl 128 15 0 1 0 0 empty empty empty -2 -8 0 10 -262144
-1 -1 8100 1;
#X obj 641 394 hsl 128 15 0 127 0 0 empty empty empty -2 -8 0 10 -262144
-1 -1 6900 1;
#X obj 261 421 hsl 128 15 48 123 0 0 empty empty empty -2 -8 0 10 -262144
-1 -1 0 1;
#X obj 458 490 hsl 128 15 1 20 1 0 empty empty empty -2 -8 0 10 -262144
-1 -1 0 1;
#X obj 324 138 hsl 128 15 0 1 0 0 empty empty empty -2 -8 0 10 -262144
-1 -1 100 1;
#X text 42 71 pitch;
#X text 78 110 finepitch;
#X text 309 80 width;
#X text 329 120 finewidth;
#X text 263 402 filtercutoff;
#X text 454 472 filterQ;
#X text 643 373 volume;
#X obj 258 381 loadbang;
#X obj 291 213 +;
#X obj 321 164 * 0.1;
#X obj 42 132 * 60;
#X obj 42 160 + 20;
#X obj 79 154 * 5;
#X obj 42 218 +;
#X obj 79 190 t b f;
#X obj 42 190 f;
#X obj 321 190 t b f;
#X obj 291 190 f;
#X msg 558 271 1;
#X obj 291 239 + 1;
#X msg 531 271 1.1;
#N canvas 1052 50 450 413 voice 0;
#X obj 23 16 inlet freq;
#X obj 128 18 inlet span;
#X obj 235 18 inlet power;
#X floatatom 139 173 10 0 0 0 - - -, f 10;
#X obj 139 194 pack 0 100;
#X obj 139 216 line~;
#X obj 139 238 phasor~ 100;
#X obj 138 261 -~ 0.5;
#X floatatom 139 91 5 0 0 0 - - -, f 5;
#X obj 140 146 *;
#X obj 139 119 t b f;
#X obj 137 67 pow;
#X obj 132 314 outlet~;
#X connect 0 0 9 0;
#X connect 1 0 11 0;
#X connect 2 0 11 1;
#X connect 3 0 4 0;
#X connect 4 0 5 0;
#X connect 5 0 6 0;
#X connect 6 0 7 0;
#X connect 7 0 12 0;
#X connect 8 0 10 0;
#X connect 9 0 3 0;
#X connect 10 0 9 0;
#X connect 10 1 9 1;
#X connect 11 0 8 0;
#X restore 623 340 pd voice;
#N canvas 1052 50 450 413 voice 0;
#X obj 23 16 inlet freq;
#X obj 128 18 inlet span;
#X obj 235 18 inlet power;
#X floatatom 139 173 10 0 0 0 - - -, f 10;
#X obj 139 194 pack 0 100;
#X obj 139 216 line~;
#X obj 139 238 phasor~ 100;
#X obj 138 261 -~ 0.5;
#X floatatom 139 91 5 0 0 0 - - -, f 5;
#X obj 140 146 *;
#X obj 139 119 t b f;
#X obj 137 67 pow;
#X obj 132 314 outlet~;
#X connect 0 0 9 0;
#X connect 1 0 11 0;
#X connect 2 0 11 1;
#X connect 3 0 4 0;
#X connect 4 0 5 0;
#X connect 5 0 6 0;
#X connect 6 0 7 0;
#X connect 7 0 12 0;
#X connect 8 0 10 0;
#X connect 9 0 3 0;
#X connect 10 0 9 0;
#X connect 10 1 9 1;
#X connect 11 0 8 0;
#X restore 527 340 pd voice;
#X msg 504 271 1.3;
#X msg 477 271 1.5;
#X msg 450 271 1.9;
#X msg 423 271 2.1;
#X msg 396 271 2.3;
#X msg 369 271 2.5;
#N canvas 1052 50 450 413 voice 0;
#X obj 23 16 inlet freq;
#X obj 128 18 inlet span;
#X obj 235 18 inlet power;
#X floatatom 139 173 10 0 0 0 - - -, f 10;
#X obj 139 194 pack 0 100;
#X obj 139 216 line~;
#X obj 139 238 phasor~ 100;
#X obj 138 261 -~ 0.5;
#X floatatom 139 91 5 0 0 0 - - -, f 5;
#X obj 140 146 *;
#X obj 139 119 t b f;
#X obj 137 67 pow;
#X obj 132 314 outlet~;
#X connect 0 0 9 0;
#X connect 1 0 11 0;
#X connect 2 0 11 1;
#X connect 3 0 4 0;
#X connect 4 0 5 0;
#X connect 5 0 6 0;
#X connect 6 0 7 0;
#X connect 7 0 12 0;
#X connect 8 0 10 0;
#X connect 9 0 3 0;
#X connect 10 0 9 0;
#X connect 10 1 9 1;
#X connect 11 0 8 0;
#X restore 41 335 pd voice;
#N canvas 1052 50 450 413 voice 0;
#X obj 23 16 inlet freq;
#X obj 128 18 inlet span;
#X obj 235 18 inlet power;
#X floatatom 139 173 10 0 0 0 - - -, f 10;
#X obj 139 194 pack 0 100;
#X obj 139 216 line~;
#X obj 139 238 phasor~ 100;
#X obj 138 261 -~ 0.5;
#X floatatom 139 91 5 0 0 0 - - -, f 5;
#X obj 140 146 *;
#X obj 139 119 t b f;
#X obj 137 67 pow;
#X obj 132 314 outlet~;
#X connect 0 0 9 0;
#X connect 1 0 11 0;
#X connect 2 0 11 1;
#X connect 3 0 4 0;
#X connect 4 0 5 0;
#X connect 5 0 6 0;
#X connect 6 0 7 0;
#X connect 7 0 12 0;
#X connect 8 0 10 0;
#X connect 9 0 3 0;
#X connect 10 0 9 0;
#X connect 10 1 9 1;
#X connect 11 0 8 0;
#X restore 129 337 pd voice;
#N canvas 1052 50 450 413 voice 0;
#X obj 23 16 inlet freq;
#X obj 128 18 inlet span;
#X obj 235 18 inlet power;
#X floatatom 139 173 10 0 0 0 - - -, f 10;
#X obj 139 194 pack 0 100;
#X obj 139 216 line~;
#X obj 139 238 phasor~ 100;
#X obj 138 261 -~ 0.5;
#X floatatom 139 91 5 0 0 0 - - -, f 5;
#X obj 140 146 *;
#X obj 139 119 t b f;
#X obj 137 67 pow;
#X obj 132 314 outlet~;
#X connect 0 0 9 0;
#X connect 1 0 11 0;
#X connect 2 0 11 1;
#X connect 3 0 4 0;
#X connect 4 0 5 0;
#X connect 5 0 6 0;
#X connect 6 0 7 0;
#X connect 7 0 12 0;
#X connect 8 0 10 0;
#X connect 9 0 3 0;
#X connect 10 0 9 0;
#X connect 10 1 9 1;
#X connect 11 0 8 0;
#X restore 210 338 pd voice;
#N canvas 1052 50 450 413 voice 0;
#X obj 23 16 inlet freq;
#X obj 128 18 inlet span;
#X obj 235 18 inlet power;
#X floatatom 139 173 10 0 0 0 - - -, f 10;
#X obj 139 194 pack 0 100;
#X obj 139 216 line~;
#X obj 139 238 phasor~ 100;
#X obj 138 261 -~ 0.5;
#X floatatom 139 91 5 0 0 0 - - -, f 5;
#X obj 140 146 *;
#X obj 139 119 t b f;
#X obj 137 67 pow;
#X obj 132 314 outlet~;
#X connect 0 0 9 0;
#X connect 1 0 11 0;
#X connect 2 0 11 1;
#X connect 3 0 4 0;
#X connect 4 0 5 0;
#X connect 5 0 6 0;
#X connect 6 0 7 0;
#X connect 7 0 12 0;
#X connect 8 0 10 0;
#X connect 9 0 3 0;
#X connect 10 0 9 0;
#X connect 10 1 9 1;
#X connect 11 0 8 0;
#X restore 282 338 pd voice;
#N canvas 1052 50 450 413 voice 0;
#X obj 23 16 inlet freq;
#X obj 128 18 inlet span;
#X obj 235 18 inlet power;
#X floatatom 139 173 10 0 0 0 - - -, f 10;
#X obj 139 194 pack 0 100;
#X obj 139 216 line~;
#X obj 139 238 phasor~ 100;
#X obj 138 261 -~ 0.5;
#X floatatom 139 91 5 0 0 0 - - -, f 5;
#X obj 140 146 *;
#X obj 139 119 t b f;
#X obj 137 67 pow;
#X obj 132 314 outlet~;
#X connect 0 0 9 0;
#X connect 1 0 11 0;
#X connect 2 0 11 1;
#X connect 3 0 4 0;
#X connect 4 0 5 0;
#X connect 5 0 6 0;
#X connect 6 0 7 0;
#X connect 7 0 12 0;
#X connect 8 0 10 0;
#X connect 9 0 3 0;
#X connect 10 0 9 0;
#X connect 10 1 9 1;
#X connect 11 0 8 0;
#X restore 451 338 pd voice;
#N canvas 1052 50 450 413 voice 0;
#X obj 23 16 inlet freq;
#X obj 128 18 inlet span;
#X obj 235 18 inlet power;
#X floatatom 139 173 10 0 0 0 - - -, f 10;
#X obj 139 194 pack 0 100;
#X obj 139 216 line~;
#X obj 139 238 phasor~ 100;
#X obj 138 261 -~ 0.5;
#X floatatom 139 91 5 0 0 0 - - -, f 5;
#X obj 140 146 *;
#X obj 139 119 t b f;
#X obj 137 67 pow;
#X obj 132 314 outlet~;
#X connect 0 0 9 0;
#X connect 1 0 11 0;
#X connect 2 0 11 1;
#X connect 3 0 4 0;
#X connect 4 0 5 0;
#X connect 5 0 6 0;
#X connect 6 0 7 0;
#X connect 7 0 12 0;
#X connect 8 0 10 0;
#X connect 9 0 3 0;
#X connect 10 0 9 0;
#X connect 10 1 9 1;
#X connect 11 0 8 0;
#X restore 357 341 pd voice;
#N canvas 1052 50 450 413 voice 0;
#X obj 23 16 inlet freq;
#X obj 128 18 inlet span;
#X obj 235 18 inlet power;
#X floatatom 139 173 10 0 0 0 - - -, f 10;
#X obj 139 194 pack 0 100;
#X obj 139 216 line~;
#X obj 139 238 phasor~ 100;
#X obj 138 261 -~ 0.5;
#X floatatom 139 91 5 0 0 0 - - -, f 5;
#X obj 140 146 *;
#X obj 139 119 t b f;
#X obj 137 67 pow;
#X obj 132 314 outlet~;
#X connect 0 0 9 0;
#X connect 1 0 11 0;
#X connect 2 0 11 1;
#X connect 3 0 4 0;
#X connect 4 0 5 0;
#X connect 5 0 6 0;
#X connect 6 0 7 0;
#X connect 7 0 12 0;
#X connect 8 0 10 0;
#X connect 9 0 3 0;
#X connect 10 0 9 0;
#X connect 10 1 9 1;
#X connect 11 0 8 0;
#X restore 357 341 pd voice;
#X obj 29 10 loadbang;
#X msg 28 38 440;
#X connect 0 0 18 0;
#X connect 0 0 18 1;
#X connect 1 0 3 0;
#X connect 2 0 0 1;
#X connect 3 0 2 0;
#X connect 4 0 5 0;
#X connect 5 0 6 0;
#X connect 6 0 47 0;
#X connect 6 0 48 0;
#X connect 6 0 59 0;
#X connect 6 0 55 0;
#X connect 6 0 56 0;
#X connect 6 0 57 0;
#X connect 6 0 58 0;
#X connect 6 0 60 0;
#X connect 7 0 47 1;
#X connect 7 0 48 1;
#X connect 7 0 59 1;
#X connect 7 0 55 1;
#X connect 7 0 56 1;
#X connect 7 0 57 1;
#X connect 7 0 58 1;
#X connect 7 0 60 1;
#X connect 8 0 54 0;
#X connect 8 0 53 0;
#X connect 8 0 52 0;
#X connect 8 0 51 0;
#X connect 8 0 50 0;
#X connect 8 0 49 0;
#X connect 8 0 46 0;
#X connect 8 0 44 0;
#X connect 9 0 8 0;
#X connect 10 0 11 0;
#X connect 11 0 13 0;
#X connect 13 0 14 0;
#X connect 14 0 15 1;
#X connect 15 1 0 0;
#X connect 17 0 15 0;
#X connect 19 0 36 0;
#X connect 20 0 38 0;
#X connect 21 0 43 0;
#X connect 22 0 1 0;
#X connect 23 0 10 0;
#X connect 23 0 16 0;
#X connect 24 0 12 0;
#X connect 24 0 15 2;
#X connect 25 0 35 0;
#X connect 33 0 23 0;
#X connect 34 0 45 0;
#X connect 35 0 42 0;
#X connect 36 0 37 0;
#X connect 37 0 41 0;
#X connect 38 0 40 0;
#X connect 39 0 4 0;
#X connect 40 0 41 0;
#X connect 40 1 39 1;
#X connect 41 0 39 0;
#X connect 42 0 43 0;
#X connect 42 1 34 1;
#X connect 43 0 34 0;
#X connect 44 0 47 2;
#X connect 45 0 7 0;
#X connect 46 0 48 2;
#X connect 47 0 17 0;
#X connect 48 0 17 0;
#X connect 49 0 59 2;
#X connect 50 0 60 2;
#X connect 51 0 58 2;
#X connect 52 0 57 2;
#X connect 53 0 56 2;
#X connect 54 0 55 2;
#X connect 55 0 17 0;
#X connect 56 0 17 0;
#X connect 57 0 17 0;
#X connect 58 0 17 0;
#X connect 59 0 17 0;
#X connect 60 0 17 0;
#X connect 62 0 63 0;
#X connect 62 0 21 0;
#X connect 62 0 25 0;
#X connect 63 0 6 0;
