#N canvas 391 135 1023 712 10;
#X obj 36 628 *~;
#X floatatom 626 282 15 0 0 0 - - -, f 15;
#X floatatom 102 276 10 0 0 0 Span_Factor - -, f 10;
#X obj 355 256 bng 15 250 50 0 empty empty empty 17 7 0 10 -262144
-1 -1;
#X obj 355 234 loadbang;
#X floatatom 477 586 10 0 0 0 - - -, f 10;
#X obj 281 512 line~;
#X obj 37 596 vcf~ 1;
#X obj 40 388 *~ 0.125;
#X text 104 27 width;
#X text 140 108 finewidth;
#X text 277 407 filtercutoff;
#X obj 102 201 +;
#X obj 132 152 * 0.1;
#X obj 132 178 t b f;
#X obj 102 178 f;
#X msg 437 279 1;
#X obj 102 227 + 1;
#X msg 410 279 1.1;
#N canvas 1052 50 450 413 voice 0;
#X obj 23 16 inlet freq;
#X obj 128 18 inlet span;
#X obj 235 18 inlet power;
#X floatatom 139 173 10 0 0 0 - - -, f 10;
#X obj 139 194 pack 0 100;
#X obj 139 216 line~;
#X obj 139 238 phasor~ 100;
#X obj 138 261 -~ 0.5;
#X floatatom 139 91 5 0 0 0 - - -, f 5;
#X obj 140 146 *;
#X obj 139 119 t b f;
#X obj 137 67 pow;
#X obj 132 314 outlet~;
#X connect 0 0 9 0;
#X connect 1 0 11 0;
#X connect 2 0 11 1;
#X connect 3 0 4 0;
#X connect 4 0 5 0;
#X connect 5 0 6 0;
#X connect 6 0 7 0;
#X connect 7 0 12 0;
#X connect 8 0 10 0;
#X connect 9 0 3 0;
#X connect 10 0 9 0;
#X connect 10 1 9 1;
#X connect 11 0 8 0;
#X restore 623 340 pd voice;
#N canvas 1052 50 450 413 voice 0;
#X obj 23 16 inlet freq;
#X obj 128 18 inlet span;
#X obj 235 18 inlet power;
#X floatatom 139 173 10 0 0 0 - - -, f 10;
#X obj 139 194 pack 0 100;
#X obj 139 216 line~;
#X obj 139 238 phasor~ 100;
#X obj 138 261 -~ 0.5;
#X floatatom 139 91 5 0 0 0 - - -, f 5;
#X obj 140 146 *;
#X obj 139 119 t b f;
#X obj 137 67 pow;
#X obj 132 314 outlet~;
#X connect 0 0 9 0;
#X connect 1 0 11 0;
#X connect 2 0 11 1;
#X connect 3 0 4 0;
#X connect 4 0 5 0;
#X connect 5 0 6 0;
#X connect 6 0 7 0;
#X connect 7 0 12 0;
#X connect 8 0 10 0;
#X connect 9 0 3 0;
#X connect 10 0 9 0;
#X connect 10 1 9 1;
#X connect 11 0 8 0;
#X restore 527 340 pd voice;
#X msg 383 279 1.3;
#X msg 356 279 1.5;
#X msg 329 279 1.9;
#X msg 302 279 2.1;
#X msg 275 279 2.3;
#X msg 248 279 2.5;
#N canvas 1052 50 450 413 voice 0;
#X obj 23 16 inlet freq;
#X obj 128 18 inlet span;
#X obj 235 18 inlet power;
#X floatatom 139 173 10 0 0 0 - - -, f 10;
#X obj 139 194 pack 0 100;
#X obj 139 216 line~;
#X obj 139 238 phasor~ 100;
#X obj 138 261 -~ 0.5;
#X floatatom 139 91 5 0 0 0 - - -, f 5;
#X obj 140 146 *;
#X obj 139 119 t b f;
#X obj 137 67 pow;
#X obj 132 314 outlet~;
#X connect 0 0 9 0;
#X connect 1 0 11 0;
#X connect 2 0 11 1;
#X connect 3 0 4 0;
#X connect 4 0 5 0;
#X connect 5 0 6 0;
#X connect 6 0 7 0;
#X connect 7 0 12 0;
#X connect 8 0 10 0;
#X connect 9 0 3 0;
#X connect 10 0 9 0;
#X connect 10 1 9 1;
#X connect 11 0 8 0;
#X restore 41 335 pd voice;
#N canvas 1052 50 450 413 voice 0;
#X obj 23 16 inlet freq;
#X obj 128 18 inlet span;
#X obj 235 18 inlet power;
#X floatatom 139 173 10 0 0 0 - - -, f 10;
#X obj 139 194 pack 0 100;
#X obj 139 216 line~;
#X obj 139 238 phasor~ 100;
#X obj 138 261 -~ 0.5;
#X floatatom 139 91 5 0 0 0 - - -, f 5;
#X obj 140 146 *;
#X obj 139 119 t b f;
#X obj 137 67 pow;
#X obj 132 314 outlet~;
#X connect 0 0 9 0;
#X connect 1 0 11 0;
#X connect 2 0 11 1;
#X connect 3 0 4 0;
#X connect 4 0 5 0;
#X connect 5 0 6 0;
#X connect 6 0 7 0;
#X connect 7 0 12 0;
#X connect 8 0 10 0;
#X connect 9 0 3 0;
#X connect 10 0 9 0;
#X connect 10 1 9 1;
#X connect 11 0 8 0;
#X restore 129 337 pd voice;
#N canvas 1052 50 450 413 voice 0;
#X obj 23 16 inlet freq;
#X obj 128 18 inlet span;
#X obj 235 18 inlet power;
#X floatatom 139 173 10 0 0 0 - - -, f 10;
#X obj 139 194 pack 0 100;
#X obj 139 216 line~;
#X obj 139 238 phasor~ 100;
#X obj 138 261 -~ 0.5;
#X floatatom 139 91 5 0 0 0 - - -, f 5;
#X obj 140 146 *;
#X obj 139 119 t b f;
#X obj 137 67 pow;
#X obj 132 314 outlet~;
#X connect 0 0 9 0;
#X connect 1 0 11 0;
#X connect 2 0 11 1;
#X connect 3 0 4 0;
#X connect 4 0 5 0;
#X connect 5 0 6 0;
#X connect 6 0 7 0;
#X connect 7 0 12 0;
#X connect 8 0 10 0;
#X connect 9 0 3 0;
#X connect 10 0 9 0;
#X connect 10 1 9 1;
#X connect 11 0 8 0;
#X restore 210 338 pd voice;
#N canvas 1052 50 450 413 voice 0;
#X obj 23 16 inlet freq;
#X obj 128 18 inlet span;
#X obj 235 18 inlet power;
#X floatatom 139 173 10 0 0 0 - - -, f 10;
#X obj 139 194 pack 0 100;
#X obj 139 216 line~;
#X obj 139 238 phasor~ 100;
#X obj 138 261 -~ 0.5;
#X floatatom 139 91 5 0 0 0 - - -, f 5;
#X obj 140 146 *;
#X obj 139 119 t b f;
#X obj 137 67 pow;
#X obj 132 314 outlet~;
#X connect 0 0 9 0;
#X connect 1 0 11 0;
#X connect 2 0 11 1;
#X connect 3 0 4 0;
#X connect 4 0 5 0;
#X connect 5 0 6 0;
#X connect 6 0 7 0;
#X connect 7 0 12 0;
#X connect 8 0 10 0;
#X connect 9 0 3 0;
#X connect 10 0 9 0;
#X connect 10 1 9 1;
#X connect 11 0 8 0;
#X restore 282 338 pd voice;
#N canvas 1052 50 450 413 voice 0;
#X obj 23 16 inlet freq;
#X obj 128 18 inlet span;
#X obj 235 18 inlet power;
#X floatatom 139 173 10 0 0 0 - - -, f 10;
#X obj 139 194 pack 0 100;
#X obj 139 216 line~;
#X obj 139 238 phasor~ 100;
#X obj 138 261 -~ 0.5;
#X floatatom 139 91 5 0 0 0 - - -, f 5;
#X obj 140 146 *;
#X obj 139 119 t b f;
#X obj 137 67 pow;
#X obj 132 314 outlet~;
#X connect 0 0 9 0;
#X connect 1 0 11 0;
#X connect 2 0 11 1;
#X connect 3 0 4 0;
#X connect 4 0 5 0;
#X connect 5 0 6 0;
#X connect 6 0 7 0;
#X connect 7 0 12 0;
#X connect 8 0 10 0;
#X connect 9 0 3 0;
#X connect 10 0 9 0;
#X connect 10 1 9 1;
#X connect 11 0 8 0;
#X restore 451 338 pd voice;
#N canvas 1052 50 450 413 voice 0;
#X obj 23 16 inlet freq;
#X obj 128 18 inlet span;
#X obj 235 18 inlet power;
#X floatatom 139 173 10 0 0 0 - - -, f 10;
#X obj 139 194 pack 0 100;
#X obj 139 216 line~;
#X obj 139 238 phasor~ 100;
#X obj 138 261 -~ 0.5;
#X floatatom 139 91 5 0 0 0 - - -, f 5;
#X obj 140 146 *;
#X obj 139 119 t b f;
#X obj 137 67 pow;
#X obj 132 314 outlet~;
#X connect 0 0 9 0;
#X connect 1 0 11 0;
#X connect 2 0 11 1;
#X connect 3 0 4 0;
#X connect 4 0 5 0;
#X connect 5 0 6 0;
#X connect 6 0 7 0;
#X connect 7 0 12 0;
#X connect 8 0 10 0;
#X connect 9 0 3 0;
#X connect 10 0 9 0;
#X connect 10 1 9 1;
#X connect 11 0 8 0;
#X restore 357 341 pd voice;
#N canvas 1052 50 450 413 voice 0;
#X obj 23 16 inlet freq;
#X obj 128 18 inlet span;
#X obj 235 18 inlet power;
#X floatatom 139 173 10 0 0 0 - - -, f 10;
#X obj 139 194 pack 0 100;
#X obj 139 216 line~;
#X obj 139 238 phasor~ 100;
#X obj 138 261 -~ 0.5;
#X floatatom 139 91 5 0 0 0 - - -, f 5;
#X obj 140 146 *;
#X obj 139 119 t b f;
#X obj 137 67 pow;
#X obj 132 314 outlet~;
#X connect 0 0 9 0;
#X connect 1 0 11 0;
#X connect 2 0 11 1;
#X connect 3 0 4 0;
#X connect 4 0 5 0;
#X connect 5 0 6 0;
#X connect 6 0 7 0;
#X connect 7 0 12 0;
#X connect 8 0 10 0;
#X connect 9 0 3 0;
#X connect 10 0 9 0;
#X connect 10 1 9 1;
#X connect 11 0 8 0;
#X restore 357 341 pd voice;
#X obj 672 63 r notes;
#X obj 670 97 unpack 0 0;
#X obj 669 129 mtof;
#X obj 737 491 moses 1;
#X obj 737 521 bng 15 250 50 0 empty empty empty 17 7 0 10 -262144
-1 -1;
#X obj 737 549 i;
#X obj 783 547 / 127;
#X msg 783 579 \$1 5;
#X msg 737 579 0 \$1;
#X obj 737 609 vline~;
#X obj 37 668 throw~ outL;
#X obj 132 668 throw~ outR;
#X obj 105 44 r knob1;
#X obj 133 128 r knob2;
#X obj 281 449 * 10000;
#X obj 281 473 + 130;
#X obj 281 425 r knob3;
#X floatatom 281 494 5 0 0 0 - - -, f 5;
#X obj 471 488 r knob4;
#X obj 475 518 * 19;
#X obj 472 547 + 1;
#X floatatom 793 363 10 0 0 0 MIDI - -, f 10;
#X obj 793 384 mtof;
#X obj 796 217 hsl 128 15 0 1 0 0 empty empty empty -2 -8 0 10 -262144
-1 -1 0 1;
#X obj 833 251 hsl 128 15 0 1 0 0 empty empty empty -2 -8 0 10 -262144
-1 -1 0 1;
#X text 793 193 pitch;
#X text 829 232 finepitch;
#X obj 793 254 * 60;
#X obj 793 282 + 20;
#X obj 830 276 * 5;
#X obj 793 340 +;
#X obj 830 312 t b f;
#X obj 793 312 f;
#X obj 442 14 loadbang;
#X obj 204 219 s screenLine1;
#X msg 233 112 1: Span \$1;
#X msg 443 40 \; screenLine1 1: Span \; screenLine2 2: Filter Cutoff
\; screenLine3 3: Filter Intens.c \;;
#X obj 387 446 s screenLine2;
#X obj 568 521 s screenLine3;
#X msg 389 420 2: Filter Cutoff \$1;
#X msg 569 500 3: Filter Intens. \$1;
#X connect 0 0 44 0;
#X connect 0 0 45 0;
#X connect 1 0 19 0;
#X connect 1 0 20 0;
#X connect 1 0 31 0;
#X connect 1 0 27 0;
#X connect 1 0 28 0;
#X connect 1 0 29 0;
#X connect 1 0 30 0;
#X connect 1 0 32 0;
#X connect 2 0 19 1;
#X connect 2 0 20 1;
#X connect 2 0 31 1;
#X connect 2 0 27 1;
#X connect 2 0 28 1;
#X connect 2 0 29 1;
#X connect 2 0 30 1;
#X connect 2 0 32 1;
#X connect 2 0 69 0;
#X connect 3 0 26 0;
#X connect 3 0 25 0;
#X connect 3 0 24 0;
#X connect 3 0 23 0;
#X connect 3 0 22 0;
#X connect 3 0 21 0;
#X connect 3 0 18 0;
#X connect 3 0 16 0;
#X connect 4 0 3 0;
#X connect 5 0 7 2;
#X connect 5 0 74 0;
#X connect 6 0 7 1;
#X connect 7 1 0 0;
#X connect 8 0 7 0;
#X connect 12 0 17 0;
#X connect 13 0 14 0;
#X connect 14 0 15 0;
#X connect 14 1 12 1;
#X connect 15 0 12 0;
#X connect 16 0 19 2;
#X connect 17 0 2 0;
#X connect 18 0 20 2;
#X connect 19 0 8 0;
#X connect 20 0 8 0;
#X connect 21 0 31 2;
#X connect 22 0 32 2;
#X connect 23 0 30 2;
#X connect 24 0 29 2;
#X connect 25 0 28 2;
#X connect 26 0 27 2;
#X connect 27 0 8 0;
#X connect 28 0 8 0;
#X connect 29 0 8 0;
#X connect 30 0 8 0;
#X connect 31 0 8 0;
#X connect 32 0 8 0;
#X connect 34 0 35 0;
#X connect 35 0 36 0;
#X connect 35 1 37 0;
#X connect 36 0 1 0;
#X connect 37 0 38 0;
#X connect 37 1 40 0;
#X connect 38 0 39 0;
#X connect 39 0 42 0;
#X connect 40 0 41 0;
#X connect 41 0 43 0;
#X connect 42 0 43 0;
#X connect 43 0 0 1;
#X connect 46 0 15 0;
#X connect 47 0 13 0;
#X connect 48 0 49 0;
#X connect 49 0 51 0;
#X connect 50 0 48 0;
#X connect 51 0 6 0;
#X connect 51 0 73 0;
#X connect 52 0 53 0;
#X connect 53 0 54 0;
#X connect 54 0 5 0;
#X connect 55 0 56 0;
#X connect 57 0 61 0;
#X connect 58 0 63 0;
#X connect 61 0 62 0;
#X connect 62 0 66 0;
#X connect 63 0 65 0;
#X connect 64 0 55 0;
#X connect 65 0 66 0;
#X connect 65 1 64 1;
#X connect 66 0 64 0;
#X connect 67 0 70 0;
#X connect 69 0 68 0;
#X connect 73 0 71 0;
#X connect 74 0 72 0;
