#N canvas -8 -8 1440 877 10;
#X obj 40 749 *~;
#X floatatom 626 402 15 0 0 0 - - -, f 15;
#X floatatom 102 396 10 0 0 0 Span_Factor - -, f 10;
#X obj 355 376 bng 15 250 50 0 empty empty empty 17 7 0 10 -262144
-1 -1;
#X obj 355 354 loadbang;
#X floatatom 145 698 10 0 0 0 - - -, f 10;
#X obj 59 635 line~;
#X obj 41 717 vcf~ 1;
#X obj 40 508 *~ 0.125;
#X obj 102 201 +;
#X obj 132 152 * 0.1;
#X obj 132 178 t b f;
#X obj 102 178 f;
#X msg 437 399 1;
#X obj 102 227 + 1;
#X msg 410 399 1.1;
#N canvas 867 116 450 413 voice 0;
#X obj 61 20 inlet freq;
#X obj 139 20 inlet span;
#X obj 216 20 inlet power;
#X floatatom 139 169 10 0 0 0 - - -, f 10;
#X obj 139 190 pack 0 100;
#X obj 139 212 line~;
#X obj 139 234 phasor~ 100;
#X obj 138 257 -~ 0.5;
#X floatatom 139 91 5 0 0 0 - - -, f 5;
#X obj 139 144 *;
#X obj 139 119 t b f;
#X obj 139 68 pow;
#X obj 137 288 outlet~;
#X text 198 72 Multiplies main frequency by value as set by inlet power
and span factor. Outputs as sawtooth.;
#X connect 0 0 9 0;
#X connect 1 0 11 0;
#X connect 2 0 11 1;
#X connect 3 0 4 0;
#X connect 4 0 5 0;
#X connect 5 0 6 0;
#X connect 6 0 7 0;
#X connect 7 0 12 0;
#X connect 8 0 10 0;
#X connect 9 0 3 0;
#X connect 10 0 9 0;
#X connect 10 1 9 1;
#X connect 11 0 8 0;
#X restore 623 460 pd voice;
#N canvas 803 53 450 413 voice 0;
#X obj 23 16 inlet freq;
#X obj 128 18 inlet span;
#X obj 235 18 inlet power;
#X floatatom 139 173 10 0 0 0 - - -, f 10;
#X obj 139 194 pack 0 100;
#X obj 139 216 line~;
#X obj 139 238 phasor~ 100;
#X obj 138 261 -~ 0.5;
#X floatatom 139 91 5 0 0 0 - - -, f 5;
#X obj 140 146 *;
#X obj 139 119 t b f;
#X obj 137 67 pow;
#X obj 132 314 outlet~;
#X connect 0 0 9 0;
#X connect 1 0 11 0;
#X connect 2 0 11 1;
#X connect 3 0 4 0;
#X connect 4 0 5 0;
#X connect 5 0 6 0;
#X connect 6 0 7 0;
#X connect 7 0 12 0;
#X connect 8 0 10 0;
#X connect 9 0 3 0;
#X connect 10 0 9 0;
#X connect 10 1 9 1;
#X connect 11 0 8 0;
#X restore 527 460 pd voice;
#X msg 383 399 1.3;
#X msg 356 399 1.5;
#X msg 329 399 1.9;
#X msg 302 399 2.1;
#X msg 275 399 2.3;
#X msg 248 399 2.5;
#N canvas 1052 50 450 413 voice 0;
#X obj 23 16 inlet freq;
#X obj 128 18 inlet span;
#X obj 235 18 inlet power;
#X floatatom 139 173 10 0 0 0 - - -, f 10;
#X obj 139 194 pack 0 100;
#X obj 139 216 line~;
#X obj 139 238 phasor~ 100;
#X obj 138 261 -~ 0.5;
#X floatatom 139 91 5 0 0 0 - - -, f 5;
#X obj 140 146 *;
#X obj 139 119 t b f;
#X obj 137 67 pow;
#X obj 132 314 outlet~;
#X connect 0 0 9 0;
#X connect 1 0 11 0;
#X connect 2 0 11 1;
#X connect 3 0 4 0;
#X connect 4 0 5 0;
#X connect 5 0 6 0;
#X connect 6 0 7 0;
#X connect 7 0 12 0;
#X connect 8 0 10 0;
#X connect 9 0 3 0;
#X connect 10 0 9 0;
#X connect 10 1 9 1;
#X connect 11 0 8 0;
#X restore 41 455 pd voice;
#N canvas 1052 50 450 413 voice 0;
#X obj 23 16 inlet freq;
#X obj 128 18 inlet span;
#X obj 235 18 inlet power;
#X floatatom 139 173 10 0 0 0 - - -, f 10;
#X obj 139 194 pack 0 100;
#X obj 139 216 line~;
#X obj 139 238 phasor~ 100;
#X obj 138 261 -~ 0.5;
#X floatatom 139 91 5 0 0 0 - - -, f 5;
#X obj 140 146 *;
#X obj 139 119 t b f;
#X obj 137 67 pow;
#X obj 132 314 outlet~;
#X connect 0 0 9 0;
#X connect 1 0 11 0;
#X connect 2 0 11 1;
#X connect 3 0 4 0;
#X connect 4 0 5 0;
#X connect 5 0 6 0;
#X connect 6 0 7 0;
#X connect 7 0 12 0;
#X connect 8 0 10 0;
#X connect 9 0 3 0;
#X connect 10 0 9 0;
#X connect 10 1 9 1;
#X connect 11 0 8 0;
#X restore 129 457 pd voice;
#N canvas 1052 50 450 413 voice 0;
#X obj 23 16 inlet freq;
#X obj 128 18 inlet span;
#X obj 235 18 inlet power;
#X floatatom 139 173 10 0 0 0 - - -, f 10;
#X obj 139 194 pack 0 100;
#X obj 139 216 line~;
#X obj 139 238 phasor~ 100;
#X obj 138 261 -~ 0.5;
#X floatatom 139 91 5 0 0 0 - - -, f 5;
#X obj 140 146 *;
#X obj 139 119 t b f;
#X obj 137 67 pow;
#X obj 132 314 outlet~;
#X connect 0 0 9 0;
#X connect 1 0 11 0;
#X connect 2 0 11 1;
#X connect 3 0 4 0;
#X connect 4 0 5 0;
#X connect 5 0 6 0;
#X connect 6 0 7 0;
#X connect 7 0 12 0;
#X connect 8 0 10 0;
#X connect 9 0 3 0;
#X connect 10 0 9 0;
#X connect 10 1 9 1;
#X connect 11 0 8 0;
#X restore 210 458 pd voice;
#N canvas 835 79 450 413 voice 0;
#X obj 23 16 inlet freq;
#X obj 128 18 inlet span;
#X obj 235 18 inlet power;
#X floatatom 139 173 10 0 0 0 - - -, f 10;
#X obj 139 194 pack 0 100;
#X obj 139 216 line~;
#X obj 139 238 phasor~ 100;
#X obj 138 261 -~ 0.5;
#X floatatom 139 91 5 0 0 0 - - -, f 5;
#X obj 140 146 *;
#X obj 139 119 t b f;
#X obj 137 67 pow;
#X obj 132 314 outlet~;
#X connect 0 0 9 0;
#X connect 1 0 11 0;
#X connect 2 0 11 1;
#X connect 3 0 4 0;
#X connect 4 0 5 0;
#X connect 5 0 6 0;
#X connect 6 0 7 0;
#X connect 7 0 12 0;
#X connect 8 0 10 0;
#X connect 9 0 3 0;
#X connect 10 0 9 0;
#X connect 10 1 9 1;
#X connect 11 0 8 0;
#X restore 282 458 pd voice;
#N canvas 813 81 450 413 voice 0;
#X obj 23 16 inlet freq;
#X obj 128 18 inlet span;
#X obj 235 18 inlet power;
#X floatatom 139 173 10 0 0 0 - - -, f 10;
#X obj 139 194 pack 0 100;
#X obj 139 216 line~;
#X obj 139 238 phasor~ 100;
#X obj 138 261 -~ 0.5;
#X floatatom 139 91 5 0 0 0 - - -, f 5;
#X obj 140 146 *;
#X obj 139 119 t b f;
#X obj 137 67 pow;
#X obj 132 314 outlet~;
#X connect 0 0 9 0;
#X connect 1 0 11 0;
#X connect 2 0 11 1;
#X connect 3 0 4 0;
#X connect 4 0 5 0;
#X connect 5 0 6 0;
#X connect 6 0 7 0;
#X connect 7 0 12 0;
#X connect 8 0 10 0;
#X connect 9 0 3 0;
#X connect 10 0 9 0;
#X connect 10 1 9 1;
#X connect 11 0 8 0;
#X restore 451 458 pd voice;
#N canvas 217 150 450 413 voice 0;
#X obj 23 16 inlet freq;
#X obj 128 18 inlet span;
#X obj 235 18 inlet power;
#X floatatom 139 173 10 0 0 0 - - -, f 10;
#X obj 139 194 pack 0 100;
#X obj 139 216 line~;
#X obj 139 238 phasor~ 100;
#X obj 138 261 -~ 0.5;
#X floatatom 139 91 5 0 0 0 - - -, f 5;
#X obj 140 146 *;
#X obj 139 119 t b f;
#X obj 132 314 outlet~;
#X obj 137 67 pow;
#X connect 0 0 9 0;
#X connect 1 0 12 0;
#X connect 2 0 12 1;
#X connect 3 0 4 0;
#X connect 4 0 5 0;
#X connect 5 0 6 0;
#X connect 6 0 7 0;
#X connect 7 0 11 0;
#X connect 8 0 10 0;
#X connect 9 0 3 0;
#X connect 10 0 9 0;
#X connect 10 1 9 1;
#X connect 12 0 8 0;
#X restore 357 461 pd voice;
#N canvas 1052 50 450 413 voice 0;
#X obj 23 16 inlet freq;
#X obj 128 18 inlet span;
#X obj 235 18 inlet power;
#X floatatom 139 173 10 0 0 0 - - -, f 10;
#X obj 139 194 pack 0 100;
#X obj 139 216 line~;
#X obj 139 238 phasor~ 100;
#X obj 138 261 -~ 0.5;
#X floatatom 139 91 5 0 0 0 - - -, f 5;
#X obj 140 146 *;
#X obj 139 119 t b f;
#X obj 137 67 pow;
#X obj 132 314 outlet~;
#X connect 0 0 9 0;
#X connect 1 0 11 0;
#X connect 2 0 11 1;
#X connect 3 0 4 0;
#X connect 4 0 5 0;
#X connect 5 0 6 0;
#X connect 6 0 7 0;
#X connect 7 0 12 0;
#X connect 8 0 10 0;
#X connect 9 0 3 0;
#X connect 10 0 9 0;
#X connect 10 1 9 1;
#X connect 11 0 8 0;
#X restore 357 461 pd voice;
#X obj 626 233 r notes;
#X obj 626 347 mtof;
#X obj 762 733 vline~;
#X obj 41 789 throw~ outL;
#X obj 136 789 throw~ outR;
#X obj 105 44 r knob1;
#X obj 132 130 r knob2;
#X obj 59 596 + 130;
#X obj 59 548 r knob3;
#X floatatom 59 617 5 0 0 0 - - -, f 5;
#X obj 631 14 loadbang;
#X obj 225 87 s screenLine1;
#X obj 988 287 r knob4;
#X obj 1028 383 f;
#X obj 626 258 unpack 0 0;
#X obj 818 279 t b f;
#X obj 767 308 float;
#X obj 767 344 select 0;
#X obj 877 306 float;
#X obj 877 341 select;
#X msg 880 396 0 50;
#X msg 762 377 \$1 50;
#X obj 626 320 stripnote;
#X obj 626 293 pack 0 0;
#X obj 827 368 bng 15 250 50 0 empty empty empty 17 7 0 10 -262144
-1 -1;
#X obj 675 374 +;
#X msg 125 640 3: Filter Cutoff \$1;
#X obj 988 336 * 50;
#X obj 988 428 - 25;
#X obj 972 654 s screenLine4;
#X obj 125 668 s screenLine3;
#X obj 225 24 * 100;
#X obj 248 126 * 100;
#X obj 225 44 int;
#X obj 971 477 int;
#X obj 125 616 int;
#X obj 59 572 * 1700;
#X obj 1007 477 -;
#X obj 1007 504 * 10;
#X obj 972 603 pack;
#X msg 972 628 4: Note Detune \$1.\$2 Hz;
#X obj 1007 529 int;
#X obj 1007 578 pow 0.5;
#X obj 1037 549 int;
#X obj 1007 553 *;
#X obj 225 168 int;
#X obj 257 168 -;
#X obj 257 193 * 10;
#X obj 225 285 pack;
#X obj 257 216 int;
#X obj 257 262 pow 0.5;
#X obj 291 239 int;
#X obj 257 240 *;
#X msg 225 310 2: Fine Span \$1.\$2%;
#X obj 225 336 s screenLine2;
#X msg 631 37 \; screenLine1 1: Coarse Span \; screenLine2 2: Fine
Span \; screenLine3 3: Filter Cutoff \; screenLine4 4: Note Detune
\;;
#X msg 225 65 1: Coarse Span \$1%;
#X text 104 27 Span;
#X text 133 112 Fine Span;
#X text 990 266 Note Detune;
#X text 55 530 Filter;
#X text 774 218 Selects note off midi signals and compares them to
midi on signals in order to deterimine whether to send off signal for
that note;
#X text 856 681 Allows for local detuning of notes. Press a note \,
detune \, then press a new note to reset the detune to 0 Hz \, allowing
you to retune the new note without losing true tuning.;
#X text 316 139 Increases oscillator distance from main frequency \,
and each other.;
#X text 324 332 Sets distance of oscillators to each other.;
#X text 161 540 Simple BPF;
#X connect 0 0 34 0;
#X connect 0 0 35 0;
#X connect 1 0 16 0;
#X connect 1 0 17 0;
#X connect 1 0 28 0;
#X connect 1 0 24 0;
#X connect 1 0 25 0;
#X connect 1 0 26 0;
#X connect 1 0 27 0;
#X connect 1 0 29 0;
#X connect 2 0 16 1;
#X connect 2 0 17 1;
#X connect 2 0 28 1;
#X connect 2 0 24 1;
#X connect 2 0 25 1;
#X connect 2 0 26 1;
#X connect 2 0 27 1;
#X connect 2 0 29 1;
#X connect 3 0 23 0;
#X connect 3 0 22 0;
#X connect 3 0 21 0;
#X connect 3 0 20 0;
#X connect 3 0 19 0;
#X connect 3 0 18 0;
#X connect 3 0 15 0;
#X connect 3 0 13 0;
#X connect 4 0 3 0;
#X connect 5 0 7 2;
#X connect 6 0 7 1;
#X connect 7 1 0 0;
#X connect 8 0 7 0;
#X connect 9 0 14 0;
#X connect 10 0 11 0;
#X connect 10 0 63 0;
#X connect 11 0 12 0;
#X connect 11 1 9 1;
#X connect 12 0 9 0;
#X connect 13 0 16 2;
#X connect 14 0 2 0;
#X connect 15 0 17 2;
#X connect 16 0 8 0;
#X connect 17 0 8 0;
#X connect 18 0 28 2;
#X connect 19 0 29 2;
#X connect 20 0 27 2;
#X connect 21 0 26 2;
#X connect 22 0 25 2;
#X connect 23 0 24 2;
#X connect 24 0 8 0;
#X connect 25 0 8 0;
#X connect 26 0 8 0;
#X connect 27 0 8 0;
#X connect 28 0 8 0;
#X connect 29 0 8 0;
#X connect 31 0 45 0;
#X connect 32 0 56 1;
#X connect 32 0 1 0;
#X connect 33 0 0 1;
#X connect 36 0 12 0;
#X connect 36 0 62 0;
#X connect 37 0 10 0;
#X connect 38 0 40 0;
#X connect 38 0 66 0;
#X connect 39 0 67 0;
#X connect 40 0 6 0;
#X connect 41 0 86 0;
#X connect 43 0 58 0;
#X connect 44 0 59 1;
#X connect 45 0 46 0;
#X connect 45 0 54 0;
#X connect 45 1 47 1;
#X connect 45 1 54 1;
#X connect 46 0 47 0;
#X connect 46 1 49 1;
#X connect 47 0 48 0;
#X connect 48 0 49 0;
#X connect 48 1 52 0;
#X connect 48 1 55 0;
#X connect 49 0 50 0;
#X connect 50 0 51 0;
#X connect 51 0 33 0;
#X connect 52 0 33 0;
#X connect 53 0 32 0;
#X connect 53 0 50 1;
#X connect 54 0 53 0;
#X connect 55 0 44 0;
#X connect 55 0 59 0;
#X connect 56 0 1 0;
#X connect 57 0 61 0;
#X connect 58 0 59 0;
#X connect 58 0 44 1;
#X connect 59 0 65 0;
#X connect 59 0 68 0;
#X connect 59 0 56 0;
#X connect 62 0 64 0;
#X connect 63 0 76 0;
#X connect 63 0 77 0;
#X connect 64 0 87 0;
#X connect 65 0 68 1;
#X connect 65 0 70 0;
#X connect 66 0 57 0;
#X connect 67 0 38 0;
#X connect 68 0 69 0;
#X connect 69 0 72 0;
#X connect 70 0 71 0;
#X connect 71 0 60 0;
#X connect 72 0 74 0;
#X connect 72 0 75 0;
#X connect 73 0 70 1;
#X connect 74 0 75 1;
#X connect 75 0 73 0;
#X connect 76 0 77 1;
#X connect 76 0 79 0;
#X connect 77 0 78 0;
#X connect 78 0 80 0;
#X connect 79 0 84 0;
#X connect 80 0 82 0;
#X connect 80 0 83 0;
#X connect 81 0 79 1;
#X connect 82 0 83 1;
#X connect 83 0 81 0;
#X connect 84 0 85 0;
#X connect 87 0 42 0;
